<svg width="256" height="256" viewBox="0 0 256 256" fill="none" xmlns="http://www.w3.org/2000/svg">
<g clip-path="url(#clip0)">
<rect width="256" height="256" fill="white"/>
<rect width="256" height="256" fill="#2CCCE1"/>
<ellipse cx="185.5" cy="68" rx="61.5" ry="64" fill="#FFAFF7"/>
<g clip-path="url(#clip1)">
<path d="M223.701 433.309C223.292 432.205 223.65 431.726 224.503 432.247C225.741 433.002 226.885 433.695 228.018 434.384C228.871 434.904 229.234 434.425 228.829 433.317C224.167 420.544 219.583 407.972 215.016 395.455C214.61 394.347 214.127 394.195 213.931 395.119C213.735 396.042 213.413 396.647 213.203 396.479C213.052 396.358 212.923 396.231 212.897 396.08C208.297 369.157 203.675 342.246 199.164 315.297C194.278 286.103 186.417 258.849 172.462 234.511C161.395 215.214 148.232 203.284 129.237 203.319C123.258 203.332 117.171 201.82 111.322 199.987C103.333 197.477 98.626 190.755 96.5659 179.88C91.6182 153.78 97.1261 133.249 114.184 118.016C127.396 106.22 137.805 91.1388 145.422 72.7281C145.869 71.6489 146.474 71.7034 146.787 72.8578C150.244 85.5801 153.646 98.1101 157.046 110.632C157.361 111.79 157.828 112.613 158.092 112.47C158.356 112.327 158.436 111.237 158.266 110.028C156.611 98.283 154.541 86.5884 153.669 74.7467C152.954 65.0212 153.357 54.9933 154.281 45.2628C156.737 19.4271 137.561 -2.52177 118.64 5.78491C111.799 8.79009 105.084 13.6934 99.4536 19.5865C92.6967 26.6597 85.5342 30.9251 77.1425 32.9519C65.2476 35.8316 53.4467 39.382 41.6165 42.6948C39.3789 43.3193 37.1579 44.0632 34.94 45.2628C34.0706 45.7329 34.1511 46.1825 35.0915 46.1784C65.4441 46.0313 95.8424 40.2812 126.495 46.8667C127.422 47.0683 128.471 48.1599 128.732 49.3389C130.174 55.8164 129.07 62.4101 125.879 68.3464C124.756 70.4318 124.299 72.4977 124.344 74.4195C124.37 75.6448 124.547 76.9926 124.466 77.4669C124.417 77.7529 124.369 78.043 124.321 78.328C124.263 78.6634 124.222 78.9988 124.193 79.3311C124.144 79.8897 123.68 81.1367 123.069 82.0677C117.481 90.5894 110.312 95.7613 103.861 102.044C88.1679 117.324 79.1189 137.568 77.619 163.317C77.1172 171.918 75.9093 180.46 75.5487 189.069C75.533 189.476 75.5195 189.866 75.5101 190.256C75.4935 190.912 75.4485 191.755 75.4201 192.137C75.4036 192.363 75.3909 192.598 75.3846 192.834C74.7826 212.579 74.1806 232.321 73.5786 252.066C73.5723 252.251 73.5723 252.435 73.5723 252.615C73.5723 252.922 73.4271 254.143 73.2378 255.344C72.964 257.057 72.6902 258.782 72.4101 260.528C72.2168 261.728 72.822 262.584 73.7561 262.434C74.265 262.354 74.8442 262.261 75.4982 262.156C76.4316 262.005 76.9886 262.845 76.7377 264.028C75.9038 267.994 75.0958 271.844 74.2335 275.958C73.9857 277.141 74.5459 278.032 75.4856 277.952C76.4387 277.869 77.4399 277.78 78.6274 277.675C79.5671 277.591 80.2014 278.506 80.0468 279.714C79.3288 285.313 78.6274 290.779 77.8928 296.496C77.7382 297.706 78.3023 298.264 79.1521 297.739C79.9758 297.231 80.8452 296.694 81.8591 296.068C82.7088 295.544 83.1594 296.064 82.8666 297.231C82.2552 299.67 81.6918 301.899 81.0898 304.296C80.7963 305.462 81.2989 306.167 82.2102 305.869C82.9763 305.622 83.7487 305.366 84.634 305.08C85.5484 304.781 86.1851 305.529 86.0597 306.741C85.7181 310.05 85.3898 313.223 85.0427 316.589C84.9172 317.806 85.5129 318.385 86.3721 317.886C87.3379 317.324 88.3675 316.728 89.6875 315.96C90.5467 315.461 91.1716 316.044 91.0816 317.265C90.8307 320.699 90.6019 323.781 90.3605 327.063C90.2705 328.284 90.9144 328.934 91.7996 328.514C92.6399 328.115 93.5472 327.683 94.5161 327.226C95.4014 326.806 96.5478 327.289 97.0788 328.3C109.121 351.328 120.81 374.579 121.875 404.197C122.333 416.95 125.752 429.706 125.268 442.294C124.215 469.789 123.691 497.518 117.881 524.345C116.187 532.165 114.855 540.14 112.849 547.817C111.874 551.557 110.084 554.936 108.092 559.428C107.621 560.489 106.852 560.515 106.327 559.498C102.638 552.35 98.7656 548.266 92.8679 554.57C92.1405 555.347 92.359 555.997 93.2987 555.939C93.9654 555.892 94.5895 555.854 95.227 555.808C96.1667 555.745 96.8492 556.69 96.9068 557.916C97.1064 562.151 98.8351 564.229 102.28 563.523C103.21 563.334 103.606 563.918 103.094 564.951C100.509 570.168 96.846 571.726 91.6694 569.669C86.799 567.738 82.2055 564.545 77.29 562.923C74.6572 562.054 70.7556 564.669 68.0896 567.26C67.3361 567.994 67.5034 568.397 68.4312 568.204C72.3841 567.385 73.6528 569.195 74.026 570.828C74.2966 572.004 73.9234 573.494 73.6946 574.072C73.4658 574.648 74.0425 575.118 74.9822 575.118H99.3377C100.277 575.118 100.494 575.81 99.7819 576.616C93.3113 583.907 86.522 585.658 79.1347 584.693C72.9119 583.878 70.485 584.638 68.1638 589.826C67.6904 590.888 68.0217 591.228 68.9496 591.005C73.0216 590.028 79.8653 594.187 84.6458 593.086C90.437 591.756 95.7193 587.005 101.385 584.339C111.233 579.709 120.719 579.722 128.911 589.809C132.311 593.993 136.07 596.738 142.025 595.819C142.96 595.676 143.124 594.837 142.418 594.027C140.88 592.251 139.77 590.85 138.475 589.854C133.679 586.173 128.322 583.487 124.015 579.041C118.352 573.197 115.836 564.69 117.171 555.22C121.169 526.928 123.793 498.217 134.219 472.02C136.556 466.152 136.637 458.323 136.637 451.397C136.64 436.664 135.564 421.922 135.648 407.192C135.67 402.873 136.813 398.561 137.837 394.252C138.113 393.08 138.48 391.707 138.632 391.17C138.78 390.633 139.189 390.259 139.585 390.351C139.98 390.444 140.525 391.469 140.776 392.652C141.529 396.182 142.185 399.762 143.292 403.09C145.901 410.919 148.328 418.991 151.823 426.135C156.455 435.609 158.654 444.869 156.316 456.186C155.374 460.748 156.658 466.235 157.37 471.192C158.023 475.737 160.115 480.132 160.118 484.598C160.125 504.546 159.683 524.492 159.207 544.435C159.153 546.672 158.368 548.875 157.546 551.806C157.225 552.96 156.443 553.225 155.76 552.377C153.722 549.85 151.997 547.705 150.336 545.644C149.653 544.797 148.904 544.254 148.662 544.43C148.42 544.607 148.536 545.656 148.926 546.772C149.608 548.737 150.374 550.945 151.466 554.088C151.855 555.205 151.434 555.839 150.523 555.527C146.329 554.108 142.903 553.383 139.971 551.41C133.918 547.338 132.557 547.107 129.126 554.675C128.646 555.733 128.991 556.249 129.869 555.817C130.385 555.561 130.861 555.326 131.318 555.099C132.197 554.663 132.85 554.638 132.773 555.041C132.695 555.443 133.346 556.128 134.224 556.573C137.842 558.402 141.539 560.275 145.857 562.461C146.736 562.907 146.743 563.645 145.874 564.115C140.386 567.083 135.383 569.787 129.551 572.938C128.681 573.408 128.684 574.16 129.58 574.538C135.857 577.191 139.858 575.491 144.217 571.55C153.305 563.335 168.914 568.297 175.517 580.306C177.296 583.546 179.434 586.456 181.488 589.436C182.115 590.351 183.019 590.892 183.518 590.632C184.017 590.371 184.188 589.217 183.982 588.017C183.647 586.066 183.347 584.038 182.443 583.332C167.124 571.448 163.135 553.059 164.114 531.429C164.916 513.728 165.321 495.998 166.087 478.293C166.584 466.871 165.634 456.193 162.624 445.043C160.051 435.52 160.728 424.291 160.814 413.83C160.872 406.93 162.085 400.046 163.009 392.44C163.158 391.226 163.84 390.895 164.571 391.671C165.391 392.541 166.112 393.304 166.662 394.232C174.167 406.912 181.914 419.374 188.965 432.476C194.769 443.264 197.862 455.509 199.563 468.747C201.191 481.445 204.469 493.778 208.019 506.018C208.35 507.163 208.727 507.11 208.844 505.893C211.135 482.004 210.927 458.384 207.05 434.093C206.858 432.892 207.321 432.489 208.093 433.19C214.969 439.432 221.183 445.069 227.346 450.665C228.119 451.366 229.043 451.605 229.409 451.201C229.777 450.798 229.742 449.577 229.332 448.469C227.538 443.672 225.726 438.779 223.701 433.309Z" fill="black"/>
</g>
</g>
<defs>
<clipPath id="clip0">
<rect width="256" height="256" fill="white"/>
</clipPath>
<clipPath id="clip1">
<rect width="454" height="592" fill="white" transform="translate(-95 4)"/>
</clipPath>
</defs>
</svg>
